<svg width="131" height="136" viewBox="0 0 131 136" fill="none" xmlns="http://www.w3.org/2000/svg">
<rect width="130.681" height="135.999" fill="#5F9341"/>
<path d="M90.6685 81.7524C90.6685 67.4394 80.581 63.3354 69.6685 61.0254L63.8845 59.8539C55.3315 58.1724 54.6715 55.6914 54.6715 52.3704C54.6715 48.0609 58.555 45.4854 65.0605 45.4854C72.7645 45.4854 74.7385 49.3554 75.5575 52.2624L75.6355 52.5039C76.6045 55.0389 78.856 56.5509 81.6655 56.5509C82.393 56.5509 83.047 56.4399 83.536 56.3409C86.551 55.7409 88.651 53.3409 88.651 50.4984C88.651 49.7934 88.5235 49.0944 88.267 48.4149C86.722 43.4469 82.381 35.6274 70.3525 33.8424V25.3224C70.3525 18.2259 59.2375 18.2259 59.2375 25.3224V33.8934C46.3165 35.9154 41.5585 44.7054 41.5585 52.3674C41.5585 66.3084 51.2665 70.1949 60.7495 72.1509L67.006 73.4799C75.916 75.2919 77.4865 77.6154 77.4865 81.8244C77.4865 86.9679 73.138 90.0339 65.848 90.0339C56.3845 90.0339 54.4555 85.7724 53.1655 80.9889C52.411 78.3414 50.0185 76.6359 47.068 76.6359C46.4245 76.6359 45.9085 76.7214 45.286 76.8279L45.0985 76.8639C42.0475 77.5884 40 79.9914 40 82.8399C40 83.3814 40.096 83.8419 40.174 84.2139L40.27 84.6399C41.6425 89.2794 44.6725 99.4119 59.785 101.672V110.59C59.785 114.14 62.578 115.999 65.341 115.999C68.104 115.999 70.9 114.14 70.9 110.59V101.828C82.9 100.265 90.6805 92.5989 90.6805 81.7539" fill="#F7F1F1"/>
</svg>
